<svg width="66" height="28" viewBox="0 0 66 28" fill="none" xmlns="http://www.w3.org/2000/svg">
<path d="M2.136 22V4.96H13.32V6.448H3.816V12.712H11.832V14.104H3.816V22H2.136ZM20.0723 4.96H21.4883L28.5683 22H26.7923L24.5843 16.672H16.9283L14.7443 22H12.9443L20.0723 4.96ZM24.2003 15.352L20.7683 6.928L17.2883 15.352H24.2003ZM29.2086 4.96L34.7766 14.128L40.3926 4.96H42.2166L35.6166 15.664V22H33.9366V15.616L27.3606 4.96H29.2086Z" fill="black"/>
<path d="M36.232 4.96L41.8 14.128L47.416 4.96H49.24L42.64 15.664V22H40.96V15.616L34.384 4.96H36.232ZM51.7688 22V4.96H58.9688C59.7048 4.96 60.3768 5.112 60.9848 5.416C61.6088 5.72 62.1448 6.136 62.5928 6.664C63.0408 7.176 63.3848 7.752 63.6248 8.392C63.8808 9.016 64.0088 9.656 64.0088 10.312C64.0088 11.144 63.8488 11.92 63.5288 12.64C63.2248 13.36 62.7848 13.968 62.2088 14.464C61.6328 14.96 60.9688 15.28 60.2168 15.424L64.3928 22H62.4968L58.4888 15.712H53.4488V22H51.7688ZM53.4488 14.224H59.0168C59.6888 14.224 60.2728 14.04 60.7688 13.672C61.2648 13.288 61.6488 12.8 61.9208 12.208C62.1928 11.616 62.3288 10.984 62.3288 10.312C62.3288 9.624 62.1688 8.992 61.8488 8.416C61.5448 7.824 61.1288 7.352 60.6008 7C60.0728 6.632 59.4968 6.448 58.8728 6.448H53.4488V14.224Z" fill="black"/>
</svg>
